<svg width="24.380615" height="19.375000" viewBox="0 0 24.3806 19.375" fill="none" xmlns="http://www.w3.org/2000/svg" xmlns:xlink="http://www.w3.org/1999/xlink">
	<desc>
			Created with Pixso.
	</desc>
	<defs/>
	<path id="Rectangle 1" d="M19.6903 8.4375C21.7614 8.4375 23.4403 10.1165 23.4403 12.1875L23.4403 17.1875C23.4403 17.8779 22.8807 18.4375 22.1903 18.4375L19.6903 18.4375C18.9999 18.4375 18.4403 17.8779 18.4403 17.1875L18.4403 15.9375L5.94031 15.9375L5.94031 17.1875C5.94031 17.8779 5.38068 18.4375 4.69031 18.4375L2.19031 18.4375C1.49994 18.4375 0.940308 17.8779 0.940308 17.1875L0.940308 12.1875C0.940308 10.1165 2.61926 8.4375 4.69031 8.4375L19.6903 8.4375Z" stroke="#FFFFFF" stroke-width="1.875000" stroke-linejoin="round"/>
	<path id="Vector 3" d="M3.44031 8.4375L5.37048 2.64691C5.71075 1.6261 6.66614 0.9375 7.74219 0.9375L16.6384 0.9375C17.7145 0.9375 18.6699 1.6261 19.0101 2.64691L20.9403 8.4375" stroke="#FFFFFF" stroke-width="1.875000" stroke-linejoin="round" stroke-linecap="round"/>
	<path id="Vector 4" d="M20.9403 8.4375L23.4403 7.1875" stroke="#FFFFFF" stroke-width="1.875000" stroke-linejoin="round" stroke-linecap="round"/>
	<path id="Vector 5" d="M3.44031 8.4375L0.940308 7.1875" stroke="#FFFFFF" stroke-width="1.875000" stroke-linejoin="round" stroke-linecap="round"/>
	<path id="Vector 6" d="M4.69031 12.1875L7.19031 12.1875" stroke="#FFFFFF" stroke-width="1.875000" stroke-linejoin="round" stroke-linecap="round"/>
	<path id="Vector 7" d="M17.1903 12.1875L19.6903 12.1875" stroke="#FFFFFF" stroke-width="1.875000" stroke-linejoin="round" stroke-linecap="round"/>
</svg>
